<svg width="12" height="10" viewBox="0 0 12 10" fill="none" xmlns="http://www.w3.org/2000/svg">
<path d="M10.693 0.909302H1.01661C0.833302 0.909302 0.6575 0.980506 0.527879 1.10725C0.398259 1.234 0.325439 1.4059 0.325439 1.58514V8.34357C0.325439 8.52282 0.398259 8.69472 0.527879 8.82147C0.6575 8.94821 0.833302 9.01942 1.01661 9.01942H10.693C10.8764 9.01942 11.0522 8.94821 11.1818 8.82147C11.3114 8.69472 11.3842 8.52282 11.3842 8.34357V1.58514C11.3842 1.4059 11.3114 1.234 11.1818 1.10725C11.0522 0.980506 10.8764 0.909302 10.693 0.909302ZM10.1608 8.34357H1.59029L4.00939 5.89702L3.51175 5.42731L1.01661 7.95159V2.09879L5.31226 6.27887C5.44176 6.40475 5.61694 6.4754 5.79953 6.4754C5.98213 6.4754 6.15731 6.40475 6.28681 6.27887L10.693 1.99403V7.90766L8.14952 5.42055L7.66225 5.89702L10.1608 8.34357ZM1.46933 1.58514H10.1332L5.79953 5.79903L1.46933 1.58514Z" fill="white"/>
</svg>
