<svg width="11" height="17" viewBox="0 0 11 17" fill="none" xmlns="http://www.w3.org/2000/svg">
<path d="M8.98798 0.637939H1.34502C1.05545 0.637939 0.777732 0.757051 0.57297 0.969072C0.368208 1.18109 0.253174 1.46865 0.253174 1.7685V15.3352C0.253174 15.635 0.368208 15.9226 0.57297 16.1346C0.777732 16.3466 1.05545 16.4657 1.34502 16.4657H8.98798C9.27756 16.4657 9.55527 16.3466 9.76004 16.1346C9.9648 15.9226 10.0798 15.635 10.0798 15.3352V1.7685C10.0798 1.46865 9.9648 1.18109 9.76004 0.969072C9.55527 0.757051 9.27756 0.637939 8.98798 0.637939ZM5.71243 15.3352H4.62058V14.2046H5.71243V15.3352ZM1.34502 13.0741V1.7685H8.98798V13.0741H1.34502Z" fill="white"/>
</svg>
