<svg width="9" height="14" viewBox="0 0 9 14" fill="none" xmlns="http://www.w3.org/2000/svg">
<path d="M7.15706 0.878662H1.24369C1.01965 0.878662 0.804777 0.970211 0.646353 1.13317C0.487928 1.29613 0.398926 1.51715 0.398926 1.7476V12.1749C0.398926 12.4054 0.487928 12.6264 0.646353 12.7893C0.804777 12.9523 1.01965 13.0438 1.24369 13.0438H7.15706C7.38111 13.0438 7.59598 12.9523 7.7544 12.7893C7.91283 12.6264 8.00183 12.4054 8.00183 12.1749V1.7476C8.00183 1.51715 7.91283 1.29613 7.7544 1.13317C7.59598 0.970211 7.38111 0.878662 7.15706 0.878662ZM4.62276 12.1749H3.77799V11.306H4.62276V12.1749ZM1.24369 10.437V1.7476H7.15706V10.437H1.24369Z" fill="white"/>
</svg>
