<svg width="12" height="12" viewBox="0 0 12 12" fill="none" xmlns="http://www.w3.org/2000/svg">
<path fill-rule="evenodd" clip-rule="evenodd" d="M3.57521 0.593109C4.16485 0.566567 4.35284 0.560669 5.85483 0.560669C7.35681 0.560669 7.54481 0.567059 8.13394 0.593109C8.72307 0.61916 9.12521 0.711075 9.47708 0.844277C9.84554 0.980429 10.1798 1.19326 10.4563 1.46851C10.7378 1.73836 10.9549 2.06473 11.0937 2.4255C11.2304 2.76957 11.3239 3.16279 11.351 3.73787C11.3782 4.31541 11.3842 4.49924 11.3842 5.96741C11.3842 7.43608 11.3777 7.61991 11.351 8.19647C11.3244 8.77155 11.2304 9.16477 11.0937 9.50883C10.9549 9.86965 10.7374 10.1966 10.4563 10.4668C10.1798 10.7421 9.84554 10.9544 9.47708 11.0901C9.12521 11.2238 8.72307 11.3152 8.13495 11.3417C7.54481 11.3683 7.35681 11.3742 5.85483 11.3742C4.35284 11.3742 4.16485 11.3678 3.57521 11.3417C2.98709 11.3157 2.58495 11.2238 2.23308 11.0901C1.86408 10.9544 1.52975 10.7417 1.25337 10.4668C0.972066 10.1968 0.754377 9.87004 0.615481 9.50932C0.479257 9.16526 0.38576 8.77204 0.358616 8.19696C0.331472 7.61942 0.325439 7.43559 0.325439 5.96741C0.325439 4.49874 0.331974 4.31492 0.358616 3.73885C0.385257 3.16279 0.479257 2.76957 0.615481 2.4255C0.754582 2.06477 0.972438 1.73802 1.25387 1.46802C1.52986 1.19301 1.86385 0.980155 2.23258 0.844277C2.58445 0.711075 2.98658 0.619652 3.57471 0.593109H3.57521ZM8.0892 1.56632C7.5061 1.54027 7.33117 1.53487 5.85483 1.53487C4.37848 1.53487 4.20355 1.54027 3.62045 1.56632C3.08109 1.59041 2.78853 1.67839 2.59349 1.75261C2.33562 1.85091 2.15114 1.96741 1.95761 2.15664C1.77416 2.33116 1.63298 2.54361 1.54442 2.77842C1.46851 2.96913 1.37854 3.25519 1.35391 3.7826C1.32726 4.35276 1.32173 4.52381 1.32173 5.96741C1.32173 7.41101 1.32726 7.58206 1.35391 8.15223C1.37854 8.67963 1.46851 8.9657 1.54442 9.15641C1.63289 9.39087 1.77414 9.60369 1.95761 9.77818C2.13606 9.95759 2.35372 10.0957 2.59349 10.1822C2.78853 10.2564 3.08109 10.3444 3.62045 10.3685C4.20355 10.3946 4.37798 10.4 5.85483 10.4C7.33168 10.4 7.5061 10.3946 8.0892 10.3685C8.62857 10.3444 8.92113 10.2564 9.11616 10.1822C9.37403 10.0839 9.55851 9.96742 9.75204 9.77818C9.93552 9.60369 10.0768 9.39087 10.1652 9.15641C10.2411 8.9657 10.3311 8.67963 10.3558 8.15223C10.3824 7.58206 10.3879 7.41101 10.3879 5.96741C10.3879 4.52381 10.3824 4.35276 10.3558 3.7826C10.3311 3.25519 10.2411 2.96913 10.1652 2.77842C10.0647 2.52627 9.94557 2.34588 9.75204 2.15664C9.57356 1.97727 9.35629 1.83922 9.11616 1.75261C8.92113 1.67839 8.62857 1.59041 8.0892 1.56632ZM5.14857 7.63416C5.543 7.79471 5.98219 7.81638 6.39114 7.69547C6.80009 7.57456 7.15343 7.31857 7.3908 6.97122C7.62817 6.62388 7.73485 6.20672 7.69262 5.79101C7.65039 5.3753 7.46187 4.98681 7.15926 4.69191C6.96635 4.5034 6.7331 4.35906 6.4763 4.26928C6.21949 4.17949 5.94552 4.1465 5.67411 4.17268C5.40271 4.19885 5.14061 4.28355 4.90669 4.42066C4.67277 4.55777 4.47285 4.74389 4.32133 4.96562C4.1698 5.18735 4.07044 5.43917 4.03039 5.70295C3.99034 5.96674 4.0106 6.23593 4.08972 6.49114C4.16883 6.74635 4.30483 6.98123 4.48792 7.17888C4.67102 7.37653 4.89665 7.53202 5.14857 7.63416ZM3.84515 4.00231C4.10906 3.74425 4.42237 3.53954 4.7672 3.39988C5.11202 3.26022 5.4816 3.18833 5.85483 3.18833C6.22806 3.18833 6.59764 3.26022 6.94246 3.39988C7.28728 3.53954 7.60059 3.74425 7.86451 4.00231C8.12842 4.26037 8.33777 4.56673 8.4806 4.90391C8.62343 5.24108 8.69695 5.60246 8.69695 5.96741C8.69695 6.33237 8.62343 6.69375 8.4806 7.03092C8.33777 7.36809 8.12842 7.67446 7.86451 7.93252C7.33151 8.4537 6.6086 8.74649 5.85483 8.74649C5.10105 8.74649 4.37815 8.4537 3.84515 7.93252C3.31215 7.41134 3.01271 6.70447 3.01271 5.96741C3.01271 5.23036 3.31215 4.52349 3.84515 4.00231ZM9.32728 3.60221C9.39268 3.54188 9.44504 3.46934 9.48125 3.38887C9.51747 3.30841 9.5368 3.22166 9.53811 3.13375C9.53942 3.04585 9.52268 2.95858 9.48888 2.87712C9.45508 2.79566 9.40491 2.72165 9.34134 2.65949C9.27777 2.59732 9.20208 2.54827 9.11877 2.51522C9.03546 2.48217 8.94621 2.4658 8.85631 2.46708C8.76642 2.46836 8.6777 2.48727 8.59541 2.52268C8.51312 2.55809 8.43893 2.60928 8.37723 2.67323C8.25725 2.7976 8.19156 2.9628 8.19411 3.13375C8.19666 3.30471 8.26725 3.46796 8.39089 3.58886C8.51452 3.70976 8.68148 3.77878 8.85631 3.78127C9.03115 3.78376 9.20009 3.71953 9.32728 3.60221Z" fill="white"/>
</svg>
