<svg width="15" height="15" viewBox="0 0 15 15" fill="none" xmlns="http://www.w3.org/2000/svg">
<path fill-rule="evenodd" clip-rule="evenodd" d="M4.77353 0.427706C5.53562 0.393172 5.77861 0.385498 7.7199 0.385498C9.6612 0.385498 9.90418 0.393812 10.6656 0.427706C11.4271 0.461599 11.9468 0.581187 12.4016 0.754494C12.8778 0.931637 13.3099 1.20854 13.6672 1.56667C14.0311 1.91776 14.3117 2.34239 14.491 2.81179C14.6678 3.25944 14.7886 3.77105 14.8237 4.51927C14.8588 5.27069 14.8666 5.50987 14.8666 7.42008C14.8666 9.33093 14.8581 9.5701 14.8237 10.3202C14.7892 11.0685 14.6678 11.5801 14.491 12.0277C14.3117 12.4972 14.0306 12.9225 13.6672 13.2741C13.3099 13.6323 12.8778 13.9085 12.4016 14.085C11.9468 14.259 11.4271 14.3779 10.6669 14.4125C9.90418 14.447 9.6612 14.4547 7.7199 14.4547C5.77861 14.4547 5.53562 14.4463 4.77353 14.4125C4.01338 14.3786 3.49363 14.259 3.03884 14.085C2.56191 13.9085 2.1298 13.6318 1.77258 13.2741C1.409 12.9228 1.12764 12.4977 0.948117 12.0284C0.772049 11.5807 0.651206 11.0691 0.616122 10.3209C0.581039 9.56946 0.573242 9.33029 0.573242 7.42008C0.573242 5.50923 0.581688 5.27005 0.616122 4.52055C0.650556 3.77105 0.772049 3.25944 0.948117 2.81179C1.1279 2.34244 1.40948 1.91732 1.77323 1.56603C2.12994 1.20822 2.56162 0.931281 3.03819 0.754494C3.49298 0.581187 4.01274 0.462239 4.77288 0.427706H4.77353ZM10.6078 1.69393C9.85416 1.66004 9.62806 1.653 7.7199 1.653C5.81174 1.653 5.58565 1.66004 4.832 1.69393C4.13488 1.72527 3.75675 1.83974 3.50467 1.9363C3.17138 2.0642 2.93294 2.21577 2.68281 2.46198C2.4457 2.68904 2.26322 2.96545 2.14876 3.27096C2.05065 3.51908 1.93436 3.89128 1.90252 4.57747C1.86809 5.3193 1.86094 5.54185 1.86094 7.42008C1.86094 9.29831 1.86809 9.52086 1.90252 10.2627C1.93436 10.9489 2.05065 11.3211 2.14876 11.5692C2.2631 11.8742 2.44567 12.1512 2.68281 12.3782C2.91345 12.6116 3.19477 12.7913 3.50467 12.9039C3.75675 13.0004 4.13488 13.1149 4.832 13.1462C5.58565 13.1801 5.81109 13.1872 7.7199 13.1872C9.62871 13.1872 9.85416 13.1801 10.6078 13.1462C11.3049 13.1149 11.6831 13.0004 11.9351 12.9039C12.2684 12.776 12.5069 12.6244 12.757 12.3782C12.9941 12.1512 13.1767 11.8742 13.291 11.5692C13.3892 11.3211 13.5054 10.9489 13.5373 10.2627C13.5717 9.52086 13.5789 9.29831 13.5789 7.42008C13.5789 5.54185 13.5717 5.3193 13.5373 4.57747C13.5054 3.89128 13.3892 3.51908 13.291 3.27096C13.1611 2.94289 13.0071 2.70819 12.757 2.46198C12.5263 2.2286 12.2455 2.04899 11.9351 1.9363C11.6831 1.83974 11.3049 1.72527 10.6078 1.69393ZM6.80708 9.58865C7.31687 9.79753 7.88452 9.82572 8.41308 9.66841C8.94164 9.51109 9.39832 9.17803 9.70512 8.72611C10.0119 8.27418 10.1498 7.73144 10.0952 7.19056C10.0406 6.64969 9.79699 6.14424 9.40586 5.76056C9.15654 5.51529 8.85506 5.32749 8.52314 5.21067C8.19123 5.09386 7.83713 5.05093 7.48633 5.08499C7.13554 5.11905 6.79678 5.22924 6.49445 5.40763C6.19211 5.58602 5.93372 5.82818 5.73788 6.11667C5.54203 6.40515 5.4136 6.73279 5.36184 7.076C5.31008 7.4192 5.33627 7.76944 5.43852 8.10148C5.54077 8.43353 5.71655 8.73913 5.9532 8.99629C6.18984 9.25344 6.48147 9.45575 6.80708 9.58865ZM5.12242 4.86333C5.46352 4.52757 5.86848 4.26123 6.31415 4.07952C6.75983 3.89781 7.2375 3.80429 7.7199 3.80429C8.2023 3.80429 8.67997 3.89781 9.12565 4.07952C9.57133 4.26123 9.97628 4.52757 10.3174 4.86333C10.6585 5.19909 10.9291 5.59769 11.1137 6.03638C11.2983 6.47506 11.3933 6.94525 11.3933 7.42008C11.3933 7.89491 11.2983 8.36509 11.1137 8.80378C10.9291 9.24247 10.6585 9.64107 10.3174 9.97683C9.62849 10.6549 8.69415 11.0359 7.7199 11.0359C6.74566 11.0359 5.81131 10.6549 5.12242 9.97683C4.43352 9.29874 4.0465 8.37905 4.0465 7.42008C4.0465 6.46111 4.43352 5.54142 5.12242 4.86333ZM12.208 4.34277C12.2925 4.26428 12.3602 4.1699 12.407 4.06521C12.4538 3.96051 12.4788 3.84764 12.4805 3.73327C12.4822 3.61891 12.4606 3.50536 12.4169 3.39937C12.3732 3.29338 12.3083 3.1971 12.2262 3.11622C12.144 3.03534 12.0462 2.97151 11.9385 2.92851C11.8308 2.88551 11.7155 2.86421 11.5993 2.86588C11.4831 2.86755 11.3684 2.89215 11.2621 2.93822C11.1557 2.98429 11.0598 3.0509 10.9801 3.1341C10.825 3.29591 10.7401 3.51085 10.7434 3.73327C10.7467 3.9557 10.8379 4.16811 10.9977 4.3254C11.1575 4.4827 11.3733 4.5725 11.5993 4.57574C11.8253 4.57898 12.0436 4.49541 12.208 4.34277Z" fill="white"/>
</svg>
