<svg width="15" height="12" viewBox="0 0 15 12" fill="none" xmlns="http://www.w3.org/2000/svg">
<path d="M13.9732 0.709961H1.46657C1.22965 0.709961 1.00243 0.802604 0.834893 0.967508C0.667361 1.13241 0.573242 1.35607 0.573242 1.58928V10.3825C0.573242 10.6157 0.667361 10.8394 0.834893 11.0043C1.00243 11.1692 1.22965 11.2618 1.46657 11.2618H13.9732C14.2102 11.2618 14.4374 11.1692 14.6049 11.0043C14.7724 10.8394 14.8666 10.6157 14.8666 10.3825V1.58928C14.8666 1.35607 14.7724 1.13241 14.6049 0.967508C14.4374 0.802604 14.2102 0.709961 13.9732 0.709961ZM13.2854 10.3825H2.20804L5.3347 7.19936L4.69151 6.58823L1.46657 9.8725V2.25757L7.01864 7.69618C7.18601 7.85995 7.41243 7.95188 7.64844 7.95188C7.88444 7.95188 8.11086 7.85995 8.27824 7.69618L13.9732 2.12127V9.81534L10.6858 6.57944L10.056 7.19936L13.2854 10.3825ZM2.05171 1.58928H13.2496L7.64844 7.07186L2.05171 1.58928Z" fill="white"/>
</svg>
